PathFileType	4	(X/Y/Z)	data/BAA/BAA01/Baseline/Walk05.trc
DataRate	CameraRate	NumFrames	NumMarkers	Units	OrigDataRate	OrigDataStartFrame	OrigNumFrames
200.0	200.0	21	12	m	200.0	708	945
Frame#	Time	RASI			SPL6			LKNE			RHIP			LASI			RKNE			RTOE			LTOE			TAIL			LHIP			LANK			RANK			
		X1	Y1	Z1	X2	Y2	Z2	X3	Y3	Z3	X4	Y4	Z4	X5	Y5	Z5	X6	Y6	Z6	X7	Y7	Z7	X8	Y8	Z8	X9	Y9	Z9	X10	Y10	Z10	X11	Y11	Z11	X12	Y12	Z12	

709	3.54	0.2419271200572153	0.06457621834239013	0.00996309094101645	0.2428739718635421	0.07101083494097368	-0.01219372923153104	0.250824618918931	0.02647019032489857	-0.02691264740190865	0.2252261948161883	0.05612945840794122	0.007273571472048919	0.2470068530411556	0.05557218637221578	-0.02911520992889145	nan	nan	nan	0.2180709797942172	0.0247648144386134	0.02332352116937846	0.237056810748617	0.006045789771743281	-0.01861489637751518	0.2166515287383189	0.05215769790360681	-0.01207081672052412	0.2278086718609953	0.04750171132930476	-0.02633672033487803	nan	nan	nan	0.2125142766366538	0.03693931970533743	0.01794537035679314	
710	3.545	0.2438784923687644	0.06487296839862468	0.01001325906137654	0.2446491248990988	0.0712232815608175	-0.01217604191899511	0.252124762155183	0.02649974542535727	-0.02712218119731543	0.2271518088527197	0.05631121188173157	0.007523546948663834	0.2485683447893052	0.05570978355237084	-0.02902351910074686	nan	nan	nan	0.22317681470489	0.0246977739409274	0.02373613017373068	0.2372556445394088	0.006305667449964633	-0.01860966925650743	0.2183080608493333	0.05250919636276452	-0.01174244457348727	0.2293362923833549	0.04780883098024797	-0.02612182308078128	nan	nan	nan	0.2156495227979777	0.03578410882225305	0.01860696769117958	
711	3.55	0.2458709237322826	0.06521487198748149	0.01008792732885539	0.2464392974545664	0.07149283422171569	-0.01212624928784054	0.2534195866644978	0.02659326732216381	-0.02732760163568464	0.2291075329672147	0.05651456462027685	0.007823263155979485	0.2501024801366441	0.05593254911636681	-0.02895425239884592	nan	nan	nan	0.2281977956180906	0.02443982058175398	0.02405056234386552	0.2374551385692726	0.006490914559417743	-0.01849832970015033	0.219997172076012	0.05291689237352488	-0.01135318847640627	0.2308645030833298	0.04818123535115199	-0.0258669501334387	nan	nan	nan	0.2188538427375774	0.03437538873109985	0.01926175841543356	
712	3.555	0.2478982549644582	0.06561477216171131	0.01019195625480571	0.248247357738807	0.07180890295900559	-0.01205596379271081	0.254715643087585	0.02673513186002384	-0.02751634228709766	0.2310964361285005	0.05675039891110815	0.008160025905275979	0.2516120006148034	0.05622435040261681	-0.02891856627675225	nan	nan	nan	0.2331542797812255	0.02402602720135528	0.02426634780844701	0.2376572097993397	0.006630180692972787	-0.01832341092747162	0.2217281437646817	0.05336228443652616	-0.01091314192283845	0.2324014115608569	0.04860124550221688	-0.02557927390083195	nan	nan	nan	0.2221033787695795	0.03284275533611477	0.01990308502180529	
713	3.56	0.2499545545260504	0.06608482156736424	0.01032933395622211	0.2500777398858785	0.07216082950220871	-0.01197710417528449	0.2560222570566972	0.02691724038151367	-0.02768318162990878	0.2331240523101228	0.05702720959516714	0.008518358562936071	0.2531052922599759	0.05656453435028283	-0.02891654310415439	nan	nan	nan	0.2380772878669357	0.02349793107012588	0.0243930598459073	0.2378677494017271	0.006759735511383155	-0.0181350402588289	0.2235080263072395	0.05383149511867535	-0.01043389158160128	0.2339551834510905	0.04905392046171893	-0.02526872451727573	nan	nan	nan	nan	nan	nan	
714	3.565	0.2520373736569987	0.06662869868529908	0.0104960904030477	0.2519356875967447	0.0725381826822607	-0.01190066061687362	0.2573499597304327	0.02713443575025675	-0.02782624457392656	0.23519427420588	0.05735218050223918	0.008885820607136852	0.2545918210726738	0.0569276124124548	-0.02893595494436825	nan	nan	nan	0.2430057997405092	0.02289889243031496	0.02443834227901318	0.2380923658542066	0.006901990599205661	-0.01796540163751859	0.2253403842448144	0.05431584859361827	-0.009928696921122821	0.2355342835490681	0.04952601440837655	-0.02494447338633692	nan	nan	nan	nan	nan	nan	
715	3.57	0.2541486374864412	0.06723680578103046	0.01067712238838284	0.2538263559805365	0.07293120572789816	-0.01183564301784234	0.2587086289578056	0.02738066609469386	-0.02794360968967751	0.2373082562323591	0.05773046224403188	0.009254358877124412	nan	nan	nan	nan	nan	nan	0.2479808320382478	0.02226563065199102	0.02439805098560472	0.2383350543379087	0.00706478017182915	-0.01782724840614984	0.2272237225087628	0.05481125669470176	-0.009411883360557422	0.2371468013744858	0.0500060833660023	-0.02461343023130094	nan	nan	nan	nan	nan	nan	
716	3.575	0.2562932580337362	0.06789073756833873	0.01085269850386092	0.2557542222902251	0.07333140028710826	-0.01178821464212489	0.2601058334166367	0.02764881039151719	-0.02803353611703802	0.2394655007244837	0.05816349394021596	0.009618640532193452	nan	nan	nan	nan	nan	nan	0.2530332158523645	0.02162540533048173	0.02426097200533615	0.2385983643218731	0.007247221879326006	-0.01772060042672517	0.2291508470081194	0.05531720115147516	-0.008898082118299119	0.2387996837831606	0.05048463790146338	-0.0242793327232828	nan	nan	nan	nan	nan	nan	
717	3.58	0.2584768354387091	0.06857141453845787	0.01100735305706621	0.2577229678053641	0.07373204641900452	-0.01176097894161689	0.2615455425878532	0.0279319360742257	-0.02809562563262801	0.2416641593647276	0.05864898162366879	0.009975928453918224	nan	nan	nan	nan	nan	nan	0.2581726943438737	0.02099693551847377	0.02402362657433788	0.2388835546718614	0.007444213217386289	-0.01763859848215713	0.231112365032292	0.05583456120846117	-0.008399914894113649	0.2404986066549477	0.0509538514723508	-0.02394170764148105	nan	nan	nan	nan	nan	nan	
718	3.585	0.2607035548281708	0.06926234122860797	0.01113347043082625	0.259735705825359	0.07412844779890902	-0.01175254379851427	0.2630274821135586	0.02822378125536471	-0.02813035493177096	0.2439027232620411	0.05918013330273818	0.01032515297721013	nan	nan	nan	nan	nan	nan	0.2633855818998501	0.02038943226686448	0.02369896720885272	0.2391907895033306	0.007649412077818574	-0.01757179201384748	0.2331040227481243	0.05636330012533499	-0.007923179905429262	0.2422481722582657	0.05140797521655173	-0.02359628658080819	nan	nan	nan	nan	nan	nan	
719	3.59	0.2629765653405908	0.06994792602492121	0.01123004402551055	0.2617952491131839	0.07451783573901105	-0.01175746889281906	0.2645475508878031	0.02851879734253829	-0.02813796929963495	0.2461829970972285	0.05974357338208168	0.01066459859081388	nan	nan	nan	nan	nan	nan	0.2686381181656932	0.01979952021901579	0.02331264861844484	0.239519253385428	0.007856913027350986	-0.01751080690052025	0.2351311221033366	0.05690182943408896	-0.007463654753438713	0.2440518447989419	0.05184499843543765	-0.02323773723746676	nan	nan	nan	nan	nan	nan	
720	3.595	0.2653007485403655	0.07061105473182973	0.01129988224661929	0.2639042019757298	0.0748989427494656	-0.01176646580415225	0.2660993162501878	0.02881354416449899	-0.02811949904407651	0.2485099991088925	0.06032047141187381	0.0109931272898652	nan	nan	nan	nan	nan	nan	0.2738794407736088	0.019207118923023	0.02289294242639375	0.2398671260008576	0.008061859495507782	-0.0174479240137147	0.2372050784877967	0.05744732911371762	-0.007009919259175081	0.2459113789602717	0.05226820706759239	-0.02286299980811441	nan	nan	nan	nan	nan	nan	
721	3.6	0.2676829526647801	0.07123265414906257	0.01134966018834922	0.2660649688493162	0.07527114591921973	-0.01176672727604298	0.2676757626561228	0.02910836810637469	-0.02807836862702745	0.2508893316199177	0.06089029143877334	0.01131335745353945	nan	nan	nan	nan	nan	nan	0.2790436875838672	0.01857549566329788	0.02246210457064871	0.2402316842049913	0.008260348867894545	-0.01737814771434426	0.2393360844642327	0.05799552750139533	-0.006549392347410503	0.2478255645068941	0.05268643007558232	-0.02247383046128868	nan	nan	nan	nan	nan	nan	
722	3.605	0.2701290729046972	0.07179237815757247	0.01139276488606916	0.2682794985503419	0.0756330223905826	-0.01174238421466225	0.2692704816221932	0.02940715502763827	-0.0280198085977368	0.2533252977338157	0.06143151025380327	0.01163092981707253	nan	nan	nan	nan	nan	nan	0.284053511090757	0.01785780937987881	0.02203101519747495	0.2406095258878565	0.008449051700061029	-0.0172997238217908	0.2415284678214755	0.05853976458213973	-0.006072778523615326	0.2497897806470414	0.05311189711306759	-0.02207642164904899	nan	nan	nan	nan	nan	nan	
723	3.61	0.2726420250605067	0.07226848216806436	0.01144917914708534	0.2705484013228207	0.07598067582307276	-0.0116751126287985	0.2708784389793931	0.02971586617572454	-0.02794938674065195	0.2558189842135497	0.06192041692568306	0.0119522413268971	nan	nan	nan	nan	nan	nan	0.2888246088322252	0.01700534054360392	0.0215961384787187	0.2409966372060434	0.008624826324215828	-0.01721406176701596	0.2437800821214026	0.05907059535769187	-0.005575477471623263	0.2517980311046566	0.0535550918094219	-0.0216760402039956	nan	nan	nan	nan	nan	nan	
724	3.615	0.2752198913398966	0.07263770031142913	0.01154179156996063	0.272869790096911	0.07630668918091967	-0.01154514874003208	0.2724966127502421	0.03004049895943959	-0.02787190364221881	0.2583657049661065	0.06233233561421428	0.01228488071563511	nan	nan	nan	nan	nan	nan	0.2932702098929521	0.01597560496484076	0.02114008453006704	0.2413882973299548	0.008785147676657737	-0.01712674496249058	0.2460839053063515	0.05957661372076802	-0.005055542778001828	0.2538447442702387	0.05402063549683361	-0.02127280437160563	nan	nan	nan	nan	nan	nan	
725	3.62	0.2778532428148843	0.07287595834130636	0.01169274062320268	0.2752383507718106	0.07660016727989137	-0.01133288010010621	0.274124388996088	0.03038478851638953	-0.02779118063201558	0.2609540755538992	0.06264329094033864	0.0126374903878114	nan	nan	nan	nan	nan	nan	0.2973052503984817	0.0147421710041676	0.02063660421464588	0.2417796514039517	0.008928740384037544	-0.01704823745657523	0.2484299511531501	0.06004475042701265	-0.004510580684806259	0.2559236809755417	0.05450762834688778	-0.02086451283748443	nan	nan	nan	nan	nan	nan	
726	3.625	0.2805256112500692	0.07295950670525965	0.01191921956145138	0.2776446515355712	0.07684774963125619	-0.01102065214696683	0.2757635825166794	0.03074855014305968	-0.02771073497765862	0.2635661164885395	0.06283174622433335	0.01301905858485802	nan	nan	nan	nan	nan	nan	0.3008509536545218	0.01330712807384295	0.02005893810296393	0.242167834455931	0.009054127233850344	-0.01698929969025435	0.2508059333031474	0.06045968275591465	-0.003937162024272385	0.2580266508807108	0.05501044606934447	-0.02045020819956992	nan	nan	nan	nan	nan	nan	
727	3.63	0.2832165492660662	0.07286808066981053	0.01223007409298701	0.2800747872346299	0.07703545532022647	-0.01059444180988983	0.2774181654077399	0.03112711632612813	-0.02763402871499082	0.2661777938414955	0.06288187785375243	0.0134391810866204	nan	nan	nan	nan	nan	nan	0.3038417413283573	0.0117137275348715	0.01939008119154409	0.242553632391353	0.009157899225696604	-0.01695492642530838	0.2531963985908322	0.06080452530051306	-0.003332627549876401	0.2601444996032559	0.05551681221968639	-0.02002827016341394	nan	nan	nan	nan	nan	nan	
728	3.635	0.2859024892874343	0.07259064355721362	0.0126272227342637	0.2825107000511684	0.07715120449504105	-0.01004542307874557	0.2790938985664361	0.03151183599357376	-0.02756376732456172	0.2687626575658733	0.06278411957168545	0.01390370298437613	nan	nan	nan	nan	nan	nan	0.3062355099873604	0.01005028214786651	0.01863269990861656	0.242940392326009	0.009236384011891164	-0.01694473897997659	0.2555822441919455	0.06106282290949747	-0.002697215229005871	0.2622686196154683	0.05600668015119763	-0.01959329133209788	nan	nan	nan	nan	nan	nan	
729	3.64	0.2885566142615703	0.07213064345457885	0.01310947384155427	0.2849313394009177	0.07718739917214604	-0.009371291076488436	0.28079788615983	0.03189111219391921	-0.02750083363962572	0.2712954888611669	0.06253463047041712	0.01440995703571693	nan	nan	nan	nan	nan	nan	0.3080257575885345	0.008436095006792705	0.01781546957615628	0.2433322110958336	0.009289285581865488	-0.01695708100459663	0.2579427352775774	0.06122038290793978	-0.002034990106847748	0.2643912822090588	0.05645501836171933	-0.01913693280546294	nan	nan	nan	nan	nan	nan	
